<?xml version="1.0" encoding="UTF-8" standalone="no"?>
<svg
   enable-background="new 0 0 60 60"
   height="47.940445"
   viewBox="0 0 60 47.940445"
   width="60"
   version="1.1"
   id="svg99"
   sodipodi:docname="guitarcombo.svg"
   inkscape:version="1.3.2 (091e20e, 2023-11-25)"
   xmlns:inkscape="http://www.inkscape.org/namespaces/inkscape"
   xmlns:sodipodi="http://sodipodi.sourceforge.net/DTD/sodipodi-0.dtd"
   xmlns:xlink="http://www.w3.org/1999/xlink"
   xmlns="http://www.w3.org/2000/svg"
   xmlns:svg="http://www.w3.org/2000/svg">
  <defs
     id="defs99" />
  <sodipodi:namedview
     id="namedview99"
     pagecolor="#ffffff"
     bordercolor="#666666"
     borderopacity="1.0"
     inkscape:showpageshadow="2"
     inkscape:pageopacity="0.0"
     inkscape:pagecheckerboard="0"
     inkscape:deskcolor="#d1d1d1"
     inkscape:zoom="13.783333"
     inkscape:cx="30"
     inkscape:cy="24.01451"
     inkscape:window-width="1872"
     inkscape:window-height="1083"
     inkscape:window-x="0"
     inkscape:window-y="25"
     inkscape:window-maximized="0"
     inkscape:current-layer="svg99" />
  <radialGradient
     id="a"
     cx="29.950001"
     cy="50.487701"
     gradientTransform="matrix(1,0,0,-1,0,54)"
     gradientUnits="userSpaceOnUse"
     r="26.648899">
    <stop
       offset=".16"
       stop-color="#d3b669"
       id="stop1" />
    <stop
       offset=".84"
       stop-color="#c58f54"
       id="stop2" />
  </radialGradient>
  <linearGradient
     id="b">
    <stop
       offset="0"
       stop-color="#fff"
       id="stop3" />
    <stop
       offset=".15"
       stop-color="#ded099"
       id="stop4" />
    <stop
       offset=".5"
       stop-color="#a68e60"
       id="stop5" />
    <stop
       offset="1"
       stop-color="#81592a"
       id="stop6" />
  </linearGradient>
  <linearGradient
     id="c"
     gradientTransform="matrix(1,0,0,-1,0,54)"
     gradientUnits="userSpaceOnUse"
     x1="22.483801"
     x2="23.364201"
     xlink:href="#b"
     y1="48.383801"
     y2="46.006802" />
  <linearGradient
     id="d"
     gradientTransform="matrix(1,0,0,-1,0,54)"
     gradientUnits="userSpaceOnUse"
     x1="26.5863"
     x2="27.466801"
     xlink:href="#b"
     y1="48.376801"
     y2="45.999699" />
  <linearGradient
     id="e"
     gradientTransform="matrix(1,0,0,-1,0,54)"
     gradientUnits="userSpaceOnUse"
     x1="30.785101"
     x2="31.6656"
     xlink:href="#b"
     y1="48.3801"
     y2="46.002998" />
  <linearGradient
     id="f"
     gradientTransform="matrix(1,0,0,-1,0,54)"
     gradientUnits="userSpaceOnUse"
     x1="34.983898"
     x2="35.864399"
     xlink:href="#b"
     y1="48.383301"
     y2="46.006302" />
  <linearGradient
     id="g"
     gradientTransform="matrix(1,0,0,-1,0,54)"
     gradientUnits="userSpaceOnUse"
     x1="13.8749"
     x2="14.7554"
     xlink:href="#b"
     y1="48.365898"
     y2="45.9888" />
  <linearGradient
     id="h"
     gradientTransform="matrix(1,0,0,-1,0,54)"
     gradientUnits="userSpaceOnUse"
     x1="18.0837"
     x2="18.964001"
     xlink:href="#b"
     y1="48.3839"
     y2="46.007599" />
  <linearGradient
     id="i">
    <stop
       offset=".25"
       stop-color="#191919"
       id="stop7" />
    <stop
       offset=".75"
       id="stop8" />
  </linearGradient>
  <linearGradient
     id="j"
     gradientTransform="matrix(1,0,0,-1,0,54)"
     gradientUnits="userSpaceOnUse"
     x1="6.8257999"
     x2="7.2927999"
     xlink:href="#i"
     y1="50.1035"
     y2="49.054699" />
  <linearGradient
     id="k">
    <stop
       offset=".21"
       stop-color="#191919"
       id="stop9" />
    <stop
       offset=".79"
       id="stop10" />
  </linearGradient>
  <linearGradient
     id="l"
     gradientTransform="matrix(1,0,0,-1,0,54)"
     gradientUnits="userSpaceOnUse"
     x1="6.9426999"
     x2="7.2298999"
     xlink:href="#k"
     y1="50.007"
     y2="49.172901" />
  <linearGradient
     id="m"
     gradientTransform="matrix(1,0,0,-1,0,54)"
     gradientUnits="userSpaceOnUse"
     x1="6.8250999"
     x2="7.2921"
     xlink:href="#i"
     y1="47.505199"
     y2="46.4562" />
  <linearGradient
     id="n"
     gradientTransform="matrix(1,0,0,-1,0,54)"
     gradientUnits="userSpaceOnUse"
     x1="6.9127002"
     x2="7.1999998"
     xlink:href="#k"
     y1="47.398701"
     y2="46.564499" />
  <path
     d="m 5.5,46.7 c 0.7,0 1.4,0.3 1.4,0.6 0,0.4 -0.6,0.6 -1.4,0.6 -0.8,0 -1.4,-0.3 -1.4,-0.6 0.1,-0.3 0.7,-0.6 1.4,-0.6 z"
     fill="#18161b"
     stroke="#000000"
     stroke-miterlimit="2.4142"
     stroke-width="0.080892"
     id="path10" />
  <path
     d="m 54,46.7 c 0.7,0 1.4,0.3 1.4,0.6 0,0.4 -0.6,0.6 -1.4,0.6 -0.8,0 -1.4,-0.3 -1.4,-0.6 0.1,-0.3 0.7,-0.6 1.4,-0.6 z"
     fill="#18161b"
     stroke="#000000"
     stroke-miterlimit="2.4142"
     stroke-width="0.080892"
     id="path11" />
  <path
     d="m 1.6,0.6 h 56.7 c 0.8,0 1.5,0.7 1.5,1.5 v 43.6 c 0,0.8 -0.7,1.5 -1.5,1.5 H 1.6 C 0.8,47.2 0.1,46.5 0.1,45.7 V 2.1 C 0.1,1.3 0.8,0.6 1.6,0.6 Z"
     fill="#78757f"
     id="path12" />
  <path
     d="m 1.9,0.9 h 56.2 c 0.8,0 1.5,0.7 1.5,1.5 v 43.2 c 0,0.8 -0.7,1.5 -1.5,1.5 -18.7,0 -37.4,0 -56.2,0 -0.8,0 -1.5,-0.7 -1.5,-1.5 0,-6.2 0,-37 0,-43.2 0,-0.9 0.7,-1.5 1.5,-1.5 z"
     fill="#020202"
     id="path13" />
  <path
     d="M 2.9,2.9 H 57 V 45 H 2.9 Z"
     fill="#050508"
     stroke="#000000"
     stroke-miterlimit="2.4142"
     stroke-width="0.080892"
     id="path14" />
  <path
     d="m 3.5,3 h 53 c 0.2,0 0.3,0.1 0.3,0.3 v 41.2 c 0,0.2 -0.1,0.3 -0.3,0.3 H 3.5 C 3.3,44.8 3.2,44.7 3.2,44.5 V 3.3 C 3.2,3.2 3.3,3 3.5,3 Z"
     fill="#ffffff"
     id="path15" />
  <path
     d="m 3.4,3.2 h 53.1 c 0,0 0.1,0 0.1,0.1 v 41.3 c 0,0 0,0.1 -0.1,0.1 H 3.4 c 0,0 -0.1,0 -0.1,-0.1 z"
     stroke="#000000"
     stroke-miterlimit="2.4142"
     stroke-width="0.080892"
     id="path16" />
  <path
     d="M 2.6,3.4 H 0.1 C 0,3.4 0,3.4 0,3.3 V 2 C 0,1.2 0.7,0.5 1.5,0.5 H 3 V 3 C 3,3.2 2.8,3.4 2.6,3.4 Z"
     id="path17" />
  <path
     d="M 2.6,3.4 H 0.2 C 0.1,3.4 0,3.3 0,3.3 V 2 C 0,1.2 0.6,0.6 1.4,0.6 H 2.9 V 3 C 3,3.2 2.8,3.4 2.6,3.4 Z"
     fill="#18161b"
     id="path18" />
  <path
     d="m 1,1.1 c 0.5,0 0.8,0.1 1,0.5 H 2.9 C 2.9,1.3 2.9,1 2.9,0.7 1.9,0.7 1.8,0.6 1,1.1 Z"
     fill="#a4a1b0"
     stroke="#000000"
     stroke-miterlimit="2.4142"
     stroke-width="0.080892"
     id="path19" />
  <path
     d="M 2.3,2.3 C 2.6,2.3 2.8,2.5 2.8,2.8 2.8,3.1 2.6,3.3 2.3,3.3 2,3.2 1.8,3 1.8,2.8 1.8,2.5 2,2.3 2.3,2.3 Z"
     id="path20" />
  <path
     d="M 2.3,2.4 C 2.5,2.4 2.7,2.6 2.7,2.8 2.7,3 2.5,3.2 2.3,3.2 2.1,3.1 1.9,3 1.9,2.8 1.9,2.5 2.1,2.4 2.3,2.4 Z"
     fill="#ffffff"
     id="path21" />
  <path
     d="m 2.3,2.5 c 0.1,0 0.2,0.1 0.2,0.1 H 2.4 C 2.3,2.6 2.1,2.7 2.1,2.9 V 3 C 2.1,3 2,2.9 2,2.8 2,2.6 2.2,2.5 2.3,2.5 Z"
     id="path22" />
  <path
     d="m 57.4,3.4 h 2.5 C 60,3.4 60,3.4 60,3.3 V 2 C 60,1.2 59.3,0.5 58.5,0.5 H 57 V 3 c 0,0.2 0.2,0.4 0.4,0.4 z"
     id="path23" />
  <path
     d="m 57.4,3.4 h 2.4 c 0.1,0 0.1,0 0.1,-0.1 V 2 C 59.9,1.2 59.3,0.6 58.5,0.6 H 57 V 3 c 0,0.2 0.2,0.4 0.4,0.4 z"
     fill="#18161b"
     id="path24" />
  <path
     d="m 59,1.1 c -0.5,0 -0.8,0.1 -1,0.5 -0.3,0 -0.6,0 -0.9,0 0,-0.3 0,-0.6 0,-0.9 1,0 1.1,-0.1 1.9,0.4 z"
     fill="#a4a1b0"
     stroke="#000000"
     stroke-miterlimit="2.4142"
     stroke-width="0.080892"
     id="path25" />
  <path
     d="m 57.7,2.3 c -0.3,0 -0.5,0.2 -0.5,0.5 0,0.3 0.2,0.5 0.5,0.5 0.3,0 0.5,-0.2 0.5,-0.5 0,-0.3 -0.2,-0.5 -0.5,-0.5 z"
     id="path26" />
  <path
     d="m 57.7,2.4 c -0.2,0 -0.4,0.2 -0.4,0.4 0,0.2 0.2,0.4 0.4,0.4 0.2,0 0.4,-0.2 0.4,-0.4 0,-0.3 -0.2,-0.4 -0.4,-0.4 z"
     fill="#ffffff"
     id="path27" />
  <path
     d="m 57.7,2.5 c -0.1,0 -0.2,0.1 -0.2,0.1 h 0.1 c 0.1,0 0.3,0.1 0.3,0.3 V 3 C 57.9,3 58,2.9 58,2.8 58,2.6 57.8,2.5 57.7,2.5 Z"
     id="path28" />
  <path
     d="M 2.6,44.4 H 0.1 C 0,44.4 0,44.4 0,44.5 v 1.4 c 0,0.8 0.7,1.5 1.5,1.5 H 3 V 44.9 C 3,44.6 2.8,44.4 2.6,44.4 Z"
     id="path29" />
  <path
     d="M 2.6,44.5 H 0.2 c -0.1,0 -0.1,0 -0.1,0.1 v 1.3 c 0,0.8 0.6,1.4 1.4,1.4 H 3 V 44.9 C 3,44.7 2.8,44.5 2.6,44.5 Z"
     fill="#18161b"
     id="path30" />
  <path
     d="m 1,46.7 c 0.5,0 0.8,-0.1 1,-0.5 h 0.9 v 0.9 c -1,0 -1.1,0.2 -1.9,-0.4 z"
     fill="#a4a1b0"
     stroke="#000000"
     stroke-miterlimit="2.4142"
     stroke-width="0.080892"
     id="path31" />
  <path
     d="m 2.3,45.6 c 0.3,0 0.5,-0.2 0.5,-0.5 0,-0.3 -0.2,-0.5 -0.5,-0.5 -0.3,0 -0.5,0.2 -0.5,0.5 0,0.3 0.2,0.5 0.5,0.5 z"
     id="path32" />
  <path
     d="m 2.3,45.5 c 0.2,0 0.4,-0.2 0.4,-0.4 0,-0.2 -0.2,-0.4 -0.4,-0.4 -0.2,0 -0.4,0.2 -0.4,0.4 0,0.2 0.2,0.4 0.4,0.4 z"
     fill="#ffffff"
     id="path33" />
  <path
     d="m 2.3,45.4 c 0.1,0 0.2,-0.1 0.2,-0.1 0,0 0,0 -0.1,0 -0.1,0 -0.3,-0.2 -0.3,-0.3 0,-0.1 0,-0.1 0,-0.1 0,0 -0.1,0.1 -0.1,0.2 0,0.1 0.2,0.3 0.3,0.3 z"
     id="path34" />
  <path
     d="m 57.4,44.4 h 2.5 c 0.1,0 0.1,0 0.1,0.1 v 1.4 c 0,0.8 -0.7,1.5 -1.5,1.5 H 57 v -2.5 c 0,-0.3 0.2,-0.5 0.4,-0.5 z"
     id="path35" />
  <path
     d="m 57.4,44.5 h 2.4 c 0.1,0 0.1,0 0.1,0.1 v 1.3 c 0,0.8 -0.6,1.4 -1.4,1.4 H 57 v -2.4 c 0,-0.2 0.2,-0.4 0.4,-0.4 z"
     fill="#18161b"
     id="path36" />
  <path
     d="m 59,46.7 c -0.5,0 -0.8,-0.1 -1,-0.5 -0.3,0 -0.6,0 -0.9,0 v 0.9 c 1,0 1.1,0.2 1.9,-0.4 z"
     fill="#a4a1b0"
     stroke="#000000"
     stroke-miterlimit="2.4142"
     stroke-width="0.080892"
     id="path37" />
  <path
     d="m 57.7,45.6 c -0.3,0 -0.5,-0.2 -0.5,-0.5 0,-0.3 0.2,-0.5 0.5,-0.5 0.3,0 0.5,0.2 0.5,0.5 0,0.3 -0.2,0.5 -0.5,0.5 z"
     id="path38" />
  <path
     d="m 57.7,45.5 c -0.2,0 -0.4,-0.2 -0.4,-0.4 0,-0.2 0.2,-0.4 0.4,-0.4 0.2,0 0.4,0.2 0.4,0.4 0,0.2 -0.2,0.4 -0.4,0.4 z"
     fill="#ffffff"
     id="path39" />
  <path
     d="m 57.7,45.4 c -0.1,0 -0.2,-0.1 -0.2,-0.1 h 0.1 c 0.1,0 0.3,-0.2 0.3,-0.3 0,-0.1 0,-0.1 0,-0.1 0.1,0 0.2,0.1 0.2,0.2 -0.1,0.1 -0.3,0.3 -0.4,0.3 z"
     id="path40" />
  <path
     d="M 38.2,0.6 C 36.8,0.3 33.8,0 30.4,0 27,0 24.1,0.2 22.7,0.6 Z"
     fill="#c9c7d6"
     id="path41" />
  <path
     d="M 24.3,0.6 H 36.7 C 35.1,0.4 32.9,0.3 30.5,0.3 28,0.3 25.8,0.4 24.3,0.6 Z"
     fill="#191919"
     id="path42" />
  <path
     d="M 56.9,45 H 3.1 v 0.1 z"
     fill="#41424b"
     id="path43" />
  <path
     d="m 3.6,3 h 52.6 c 0.2,0 0.4,0.2 0.4,0.4 V 8.9 H 3.3 V 3.3 C 3.3,3.1 3.5,3 3.6,3 Z"
     fill="url(#a)"
     id="path44"
     style="fill:url(#a)" />
  <path
     d="M 3.4,8.8 H 56.6 V 8.9 9 H 3.4 c 0,-0.1 0,-0.1 0,-0.2 z"
     id="path45" />
  <path
     d="M 26.8,5.4 V 4 h 4.1 V 5.4 H 31 V 4 h 4.1 v 1.3 h 0.1 V 3.9 H 35.1 22.6 v 1.4 h 0.1 V 4 h 4 v 1.4 z"
     fill="#1c100a"
     id="path46" />
  <path
     d="m 22.6,5.3 c 0.5,0 0.9,0.4 0.9,0.9 0,0.5 -0.4,0.9 -0.9,0.9 -0.5,0 -0.9,-0.4 -0.9,-0.9 0.1,-0.5 0.5,-0.9 0.9,-0.9 z"
     fill="#1c100a"
     id="path47" />
  <path
     d="M 22.6,5.5 C 23,5.4 23.4,5.7 23.4,6.1 23.5,6.5 23.2,6.9 22.8,6.9 22.4,7 22,6.7 22,6.3 21.9,5.9 22.2,5.5 22.6,5.5 Z"
     fill="url(#c)"
     id="path48"
     style="fill:url(#c)" />
  <path
     d="m 22.1,5.7 0.3,0.2 z"
     fill="#17110f"
     id="path49" />
  <path
     d="M 27.6,6.3 C 27.5,6.8 27.1,7.1 26.6,7 26.1,6.9 25.8,6.5 25.9,6 c 0.1,-0.5 0.5,-0.8 1,-0.7 0.5,0.1 0.8,0.5 0.7,1 z"
     fill="#1c100a"
     id="path50" />
  <path
     d="m 27.5,6.2 c 0,0.4 -0.3,0.7 -0.7,0.7 -0.4,0 -0.7,-0.3 -0.7,-0.7 0,-0.4 0.3,-0.7 0.7,-0.7 0.4,0 0.7,0.3 0.7,0.7 z"
     fill="url(#d)"
     id="path51"
     style="fill:url(#d)" />
  <path
     d="M 27.3,5.7 27,6 Z"
     fill="#17110f"
     id="path52" />
  <path
     d="M 31.8,6.3 C 31.7,6.8 31.3,7.1 30.8,7 30.3,6.9 30,6.5 30.1,6 c 0.1,-0.5 0.5,-0.8 1,-0.7 0.5,0.1 0.8,0.5 0.7,1 z"
     fill="#1c100a"
     id="path53" />
  <path
     d="m 35.3,5.3 c 0.5,0.1 0.8,0.5 0.7,1 C 35.9,6.8 35.5,7.1 35,7 34.5,6.9 34.2,6.5 34.3,6 c 0.1,-0.4 0.5,-0.8 1,-0.7 z"
     fill="#1c100a"
     id="path54" />
  <path
     d="m 31.7,6.2 c 0,0.4 -0.3,0.7 -0.7,0.7 -0.4,0 -0.7,-0.3 -0.7,-0.7 0,-0.4 0.3,-0.7 0.7,-0.7 0.4,0 0.7,0.3 0.7,0.7 z"
     fill="url(#e)"
     id="path55"
     style="fill:url(#e)" />
  <path
     d="M 31.5,5.7 31.2,6 Z"
     fill="#17110f"
     id="path56" />
  <path
     d="m 35.2,5.5 c 0.4,0 0.7,0.4 0.7,0.7 0,0.4 -0.4,0.7 -0.7,0.7 -0.4,0 -0.7,-0.4 -0.7,-0.7 -0.1,-0.4 0.3,-0.8 0.7,-0.7 z"
     fill="url(#f)"
     id="path57"
     style="fill:url(#f)" />
  <path
     d="M 34.7,5.6 35,5.9 Z"
     fill="#17110f"
     id="path58" />
  <path
     d="M 15,6.2 C 15,6.7 14.5,7.1 14.1,7 13.6,7 13.2,6.5 13.3,6.1 c 0,-0.5 0.5,-0.9 0.9,-0.8 0.4,0 0.8,0.5 0.8,0.9 z"
     fill="#1c100a"
     id="path59" />
  <path
     d="m 14.8,6.1 c 0,0.4 -0.3,0.7 -0.7,0.8 -0.4,0 -0.7,-0.3 -0.8,-0.7 0,-0.4 0.3,-0.7 0.7,-0.8 0.4,0 0.8,0.3 0.8,0.7 z"
     fill="url(#g)"
     id="path60"
     style="fill:url(#g)" />
  <path
     d="M 14.6,5.7 14.3,6 Z"
     fill="#17110f"
     id="path61" />
  <path
     d="m 18.4,7.1 c -0.5,0.1 -0.9,-0.2 -1,-0.7 -0.1,-0.5 0.2,-0.9 0.7,-1 0.5,-0.1 0.9,0.2 1,0.7 0.1,0.4 -0.2,0.9 -0.7,1 z"
     fill="#1c100a"
     id="path62" />
  <path
     d="M 18.5,6.9 C 18.1,7 17.7,6.8 17.6,6.4 17.5,6 17.7,5.6 18.1,5.5 18.5,5.4 18.9,5.6 19,6 19.1,6.4 18.8,6.8 18.5,6.9 Z"
     fill="url(#h)"
     id="path63"
     style="fill:url(#h)" />
  <path
     d="m 18.9,6.5 c 0,0.1 0,0.1 0,0 L 18.5,6.3 V 6.2 Z"
     fill="#17110f"
     id="path64" />
  <path
     d="m 22,7.1 c 0,0 0.1,0 0,0 0.1,0 0.1,0 0,0 0.1,-0.1 0.1,-0.1 0.1,0 0,0.1 0,0.1 -0.1,0 0.1,0.1 0,0.1 0,0 0,0.1 0,0.1 0,0 z M 22.6,5 v 0.2 z m 0.8,0.7 0.2,-0.1 z m 0.1,0.9 0.2,0.1 -0.2,-0.1 c 0,0.1 0,0.1 0,0 z m -1.7,0.1 -0.2,0.1 0.2,-0.1 c 0,-0.1 0,-0.1 0,0 z m 0,-1 -0.2,-0.1 z m -0.2,0.5 h -0.1 0.1 c -0.1,0 -0.1,0 0,0 -0.1,0 0,0 0,0 0,-0.1 0,-0.1 0,-0.1 v 0.1 c -0.1,0 -0.1,0 0,0 z M 22.1,5.3 V 5.1 Z m 1.1,-0.1 c 0,0.1 0,0.1 0,0 v 0.1 c 0,0 0,0 0,-0.1 -0.1,0 -0.1,0 0,0 z m 0,0.1 c 0,-0.1 0,0 0,0 z m 0.5,0.9 c 0,-0.1 0,-0.1 0,0 0.1,-0.1 0.1,-0.1 0,0 0.1,-0.1 0.1,0 0,0 -0.1,0 0.1,0 0,0 0.1,0 0.1,0 0,0 0,0.1 0,0.1 0,0 z m 0,-0.1 c 0,0 0,0.1 0,0 0,0.1 0,0.1 0,0 z m 0,0.1 c 0,0 0,0.1 0,0 z m -0.6,1 V 7.1 Z m 0.1,-0.1 c 0,-0.1 0,-0.1 0,0 0.1,-0.1 0.1,-0.1 0,0 0.1,-0.1 0.1,-0.1 0.1,0 0,0.1 0,0.1 -0.1,0 0,0.1 0,0.1 0,0 z m 0,0 c 0,0 0,0.1 0,0 0,0.1 0,0.1 0,0 0.1,0.1 0.1,0 0,0 0.1,0 0.1,0 0,0 0,-0.1 0,-0.1 0,0 z m -1.2,0 c 0,0.1 0,0.1 0,0 0,0.1 0.1,0.1 0,0 0.1,0.1 0.1,0.1 0,0 0.1,0 0.1,0 0,0 z"
     id="path65" />
  <path
     d="m 26.1,7.1 c 0.1,0 0.1,0 0,0 0.1,-0.1 0.1,-0.1 0.1,0 0,0.1 0,0.1 -0.1,0 0,0.1 0,0.1 0,0 z m 1.5,-1.4 0.2,-0.1 z m 0,0.9 0.2,0.1 -0.2,-0.1 c 0,0.1 0,0.1 0,0 z M 26,6.7 25.8,6.8 26,6.7 c 0,-0.1 0,-0.1 0,0 z m 0,-1 -0.2,-0.1 z m -0.3,0.5 h -0.1 0.1 c -0.1,0 -0.1,0 0,0 0,-0.1 0,-0.1 0,-0.1 v 0.1 c -0.1,0 -0.1,0 0,0 z M 26.2,5.3 V 5.1 Z m 1.2,-0.1 c -0.1,0 -0.1,0 0,0 0,0.1 0,0.1 0,0 v 0.1 c 0,0 0,0 0,-0.1 -0.1,0 -0.1,0 0,0 z m -0.1,0.1 c 0,0 0.1,0 0,0 0,-0.1 0,0 0,0 z m 0.5,0.9 c 0,-0.1 0,-0.1 0,0 0.1,-0.1 0.1,-0.1 0,0 0.1,-0.1 0.1,0 0,0 0.1,0 0.1,0 0,0 0.1,0.1 0.1,0.1 0,0 0,0.1 0,0.1 0,0 z m 0,-0.1 c 0,0 0,0.1 0,0 0,0.1 0,0.1 0,0 0,0.1 0.1,0.1 0,0 0.1,0.1 0.1,0 0,0 0.1,0 0.1,0 0,0 z m 0,0.1 c 0,0 0,0.1 0,0 0.1,0.1 0.1,0 0,0 0.1,0 0.1,0 0,0 z m -0.6,1 V 7.1 Z m 0.1,-0.1 c 0,-0.1 0,-0.1 0,0 0.1,-0.1 0.1,-0.1 0,0 0.1,-0.1 0.1,-0.1 0.1,0 0,0.1 0,0.1 -0.1,0 0,0.1 0,0.1 0,0 z m 0,0 c 0,0 0,0.1 0,0 0,0.1 0,0.1 0,0 0.1,0.1 0.1,0.1 0,0 0.1,0.1 0.1,0 0,0 0.1,0 0.1,0 0,0 0.1,-0.1 0.1,-0.1 0,0 0,-0.1 0,-0.1 0,0 z m -1.1,0 c 0,0.1 0,0.1 0,0 z"
     id="path66" />
  <path
     d="m 30.3,7.1 c 0.1,0 0.1,0 0,0 0.1,-0.1 0.1,-0.1 0.1,0 0,0.1 0,0.1 -0.1,0 0,0.1 0,0.1 0,0 z M 31.8,5.7 32,5.6 Z m 0,0.9 0.2,0.1 -0.2,-0.1 c 0,0.1 0,0.1 0,0 z M 30.2,6.7 30,6.8 30.2,6.7 c 0,-0.1 0,-0.1 0,0 z m -0.1,-1 -0.2,-0.1 0.2,0.1 c 0.1,0 0.1,0 0,0 z m -0.2,0.5 h -0.1 0.1 c -0.1,0 -0.1,0 0,0 0,-0.1 0,-0.1 0,-0.1 v 0.1 c -0.1,0 -0.1,0 0,0 z M 30.4,5.3 V 5.1 Z m 1.2,-0.1 c -0.1,0 -0.1,0 0,0 0,0.1 0,0.1 0,0 v 0.1 c 0,0 0,0 0,-0.1 -0.2,0 -0.1,0 0,0 -0.1,0 -0.1,0 0,0 z m -0.1,0.1 c 0,-0.1 0,0 0,0 z M 32,6.2 c 0,-0.1 0,-0.1 0,0 0,-0.1 0.1,-0.1 0,0 0.1,-0.1 0.1,-0.1 0,0 0.1,-0.1 0.1,0 0,0 0.1,0 0.1,0 0,0 0.1,0.1 0,0.1 0,0 0,0.1 0,0.1 0,0 z m 0,-0.1 c 0,0 0,0.1 0,0 0,0.1 0,0.1 0,0 0.1,0.1 0.1,0 0,0 0.1,0 0.1,0 0,0 z m 0,0.1 c 0,0 0,0.1 0,0 0.1,0 0.1,0 0,0 z m -0.6,1 V 7.1 Z m 0.1,-0.1 c 0,-0.1 0,-0.1 0,0 0.1,-0.1 0.1,-0.1 0,0 0.1,-0.1 0.1,-0.1 0.1,0 0,0.1 0,0.1 -0.1,0 0,0.1 0,0.1 0,0 z m 0,0 c 0,0 0,0.1 0,0 0,0.1 0,0.1 0,0 0.1,0.1 0.1,0.1 0,0 0.1,0.1 0.1,0 0,0 0.1,0 0.1,0 0,0 0.1,-0.1 0.1,-0.1 0,0 0,-0.1 0,-0.1 0,0 z m -1.1,0 c 0,0.1 0,0.1 0,0 z"
     id="path67" />
  <path
     d="m 34.5,7.1 c 0.1,0 0.1,0 0,0 0.1,-0.1 0.1,-0.1 0,0 0.1,0.1 0.1,0.1 0,0 0,0.1 0,0.1 0,0 z M 35.1,5 v 0.2 z m 0.8,0.7 0.2,-0.1 z M 36,6.6 36.2,6.7 36,6.6 c -0.1,0.1 -0.1,0.1 0,0 z m -1.7,0.1 -0.2,0.1 0.2,-0.1 c 0,-0.1 0,-0.1 0,0 z m 0,-1 -0.2,-0.1 z m -0.2,0.5 c -0.1,0 -0.1,0 0,0 0,-0.1 0,-0.1 0,-0.1 v 0.1 c -0.1,0 -0.1,0 0,0 z M 34.6,5.3 V 5.1 Z m 1.1,-0.1 c -0.1,0 -0.1,0 0,0 -0.1,0 0,0 0,0 0,0.1 0,0.1 0,0 v 0.1 c 0,0 0,0 0,-0.1 -0.1,0 -0.1,0 0,0 -0.1,0 0,0 0,0 z m -0.1,0.1 c 0.1,0 0.1,0 0,0 0.1,0 0.1,-0.1 0,0 0.1,-0.1 0.1,0 0,0 z m 0.6,0.9 c 0,-0.1 0,-0.1 0,0 0,-0.1 0.1,-0.1 0,0 0.1,-0.1 0,0 0,0 0.1,0 0.1,0 0,0 0,0.1 0,0.1 0,0 -0.1,0 -0.1,0 0,0 z m 0,-0.1 c 0,0 0,0.1 0,0 0,0.1 0,0.1 0,0 z m 0,0.1 c 0,0 0,0.1 0,0 z m -0.6,1 V 7.1 Z m 0.1,-0.1 c 0,-0.1 0,-0.1 0,0 0.1,-0.1 0.1,-0.1 0,0 0.1,0.1 0.1,0.1 0,0 0,0.1 0,0.1 0,0 z m 0,0 c 0,0 0,0.1 0,0 0,0.1 0,0.1 0,0 0,-0.1 0,-0.1 0,0 z m -1.2,0 c 0,0.1 0,0.1 0,0 0.1,0.1 0.1,0.1 0,0 0.1,0 0.1,0 0,0 z"
     id="path68" />
  <path
     d="m 13.5,7.1 c 0,0 0.1,0 0,0 0.1,-0.1 0.1,-0.1 0.1,0 0,0.1 0,0.1 -0.1,0 0,0.1 0,0.1 0,0 z M 14.1,5 v 0.2 z m 0.8,0.7 0.2,-0.1 z m 0,0.9 0.2,0.1 -0.2,-0.1 c 0,0.1 0,0.1 0,0 z m -1.6,0.1 -0.2,0.1 0.2,-0.1 c 0,-0.1 0,-0.1 0,0 z m 0,-1 -0.2,-0.1 z M 13,6.2 H 12.9 13 C 13,6.1 13,6.1 13,6.1 Z M 13.5,5.3 V 5.1 Z m 1.2,-0.1 c -0.1,0 -0.1,0 0,0 0,0.1 0,0.1 0,0 v 0.1 c 0,0 0,0 0,-0.1 -0.1,0 -0.1,0 0,0 z m -0.1,0.1 c 0,0 0.1,0 0,0 0.1,0 0.1,0 0,0 0.1,0 0,-0.1 0,0 0,-0.1 0,0 0,0 z m 0.5,0.9 c 0,-0.1 0,-0.1 0,0 0.1,-0.1 0.1,-0.1 0,0 0.1,-0.1 0.1,0 0,0 0.1,0 0.1,0 0,0 0.1,0.1 0.1,0.1 0,0 0,0.1 0,0.1 0,0 z m 0,-0.1 c 0,0 0,0.1 0,0 0,0.1 0.1,0.1 0,0 0.1,0.1 0.1,0.1 0,0 0.1,0.1 0.1,0 0,0 0.1,0 0.1,0 0,0 z m 0,0.1 c 0,0 0.1,0.1 0,0 0.1,0.1 0.1,0 0,0 0.1,0 0.1,0 0,0 z m -0.5,1 V 7.1 Z m 0,-0.1 c 0,-0.1 0.1,-0.1 0,0 0.1,-0.1 0.1,-0.1 0,0 0.1,-0.1 0.1,-0.1 0.1,0 0,0.1 0,0.1 -0.1,0 0.1,0.1 0,0.1 0,0 z m 0,0 c 0,0 0,0.1 0,0 0.1,0.1 0.1,0.1 0,0 0.1,0.1 0.1,0 0,0 0.1,0 0.1,0 0,0 0.1,-0.1 0.1,-0.1 0,0 z m -1.1,0 c 0,0.1 0,0.1 0,0 z"
     id="path69" />
  <path
     d="m 17.6,7.1 c 0.1,0 0.1,0 0,0 0.1,-0.1 0.1,-0.1 0.1,0 0,0.1 0,0.1 -0.1,0 0,0.1 0,0.1 0,0 z M 18.2,5 V 5.2 Z M 19,5.7 19.2,5.6 Z m 0.1,0.9 0.2,0.1 -0.2,-0.1 c -0.1,0.1 -0.1,0.1 0,0 z m -1.7,0.1 -0.2,0.1 0.2,-0.1 c 0,-0.1 0,-0.1 0,0 z m 0,-1 -0.2,-0.1 z m -0.2,0.5 h -0.1 0.1 c -0.1,0 -0.1,0 0,0 0,-0.1 0,-0.1 0,-0.1 v 0.1 c -0.1,0 -0.1,0 0,0 z M 17.7,5.3 V 5.1 Z m 1.1,-0.1 c -0.1,0 -0.1,0 0,0 -0.1,0 0,0 0,0 0,0.1 0,0.1 0,0 v 0.1 c 0,0 0,0 0,-0.1 -0.1,0 -0.1,0 0,0 z m -0.1,0.1 c 0.1,0 0.1,0 0,0 0.1,0 0.1,-0.1 0,0 0.1,-0.1 0.1,0 0,0 z m 0.6,0.9 c 0,-0.1 0,-0.1 0,0 0,-0.1 0.1,-0.1 0,0 0.1,-0.1 0.1,0 0,0 0.1,0 0.1,0 0,0 0,0.1 0,0.1 0,0 -0.1,0 -0.1,0 0,0 z m 0,-0.1 c 0,0 0,0.1 0,0 0,0.1 0,0.1 0,0 z m 0,0.1 c 0,0 0,0.1 0,0 z m -0.6,1 V 7.1 Z m 0.1,-0.1 c 0,-0.1 0,-0.1 0,0 0,-0.1 0.1,-0.1 0,0 0.1,-0.1 0.1,-0.1 0.1,0 0,0.1 0,0.1 -0.1,0 0,0.1 0,0.1 0,0 z m 0,0 c 0,0 0,0.1 0,0 0,0.1 0,0.1 0,0 0,-0.1 0,-0.1 0,0 z m -1.2,0 c 0,0.1 0,0.1 0,0 0.1,0.1 0.1,0.1 0,0 0.1,0 0.1,0 0,0 z"
     id="path70" />
  <path
     d="m 49.8,4.1 h 2 0.1 v 0.1 2.5 0.1 h -0.1 -2 -0.1 V 6.7 4.2 Z m 2.1,0.1 h -2 v 2.5 h 2 V 4.2 c 0,0.1 0,0.1 0,0 z"
     fill="#fee0c1"
     id="path71" />
  <path
     d="m 51.9,4.2 h -2 v 2.5 h 2 V 4.2 c 0,0.1 0,0.1 0,0 z"
     fill="#180b0b"
     id="path72" />
  <path
     d="M 51.7,4.4 H 50 v 2.1 h 1.7 z"
     fill="#9a2734"
     id="path73" />
  <path
     d="M 51.7,4.4 H 50 V 5 h 1.7 z"
     fill="#591010"
     id="path74" />
  <path
     d="M 51.7,5 H 50 V 5.1 L 51.7,5 c 0,0.1 0,0.1 0,0 z"
     fill="#fac3c5"
     id="path75" />
  <path
     d="m 53.5,4.1 h 2 0.1 v 0.1 2.5 0.1 h -0.1 -2 -0.1 V 6.7 4.2 Z m 2,0.1 h -2 v 2.5 h 2 V 4.2 c 0,0.1 0,0.1 0,0 z"
     fill="#fee0c1"
     id="path76" />
  <path
     d="m 55.5,4.2 h -2 v 2.5 h 2 V 4.2 c 0,0.1 0,0.1 0,0 z"
     fill="#180b0b"
     id="path77" />
  <path
     d="M 55.3,6.6 H 53.6 V 4.5 h 1.7 v 2.1 c 0.1,0 0.1,0 0,0 z"
     fill="#191922"
     id="path78" />
  <path
     d="M 55.3,6.6 H 53.6 V 6 h 1.7 v 0.6 c 0.1,0 0.1,0 0,0 z"
     fill="#181112"
     id="path79" />
  <path
     d="M 55.3,6 H 53.6 V 5.6 h 1.7 V 6 c 0.1,0 0.1,0 0,0 z"
     fill="#a3a0ac"
     id="path80" />
  <path
     d="M 50.2,8.1 V 7.8 h 0.1 v 0.1 c 0,0 0,0 -0.1,0 h -0.1 z m 0.2,-0.2 c 0,-0.1 0,-0.1 0,-0.1 h 0.1 0.1 V 7.9 8 8.1 8.2 c 0,0 0,0 -0.1,0 0,0 0,0 -0.1,0 0.1,-0.1 0,-0.2 0,-0.3 0,0.1 0,0.1 0,0 z m 0,0 c 0,0.1 0.1,0.1 0,0 0,0.1 0.1,0.1 0.1,0.1 h 0.1 V 7.9 7.8 c 0,0 0,0 -0.1,0 z M 50.7,8.1 50.6,7.8 V 8 c 0.2,0 0.2,0 0.1,0.1 0,-0.1 0,-0.1 0,-0.1 V 7.8 8 8.1 c 0,0 0,0 0,-0.1 V 7.8 8.1 L 50.5,7.8 Z m 0.3,0 V 7.8 H 51.2 51 V 7.9 H 51.1 51 v 0.2 h 0.2 z m 0.3,0 V 7.8 h 0.1 0.1 v 0.1 c 0,0 0,0 -0.1,0 l -0.1,0.2 0.1,-0.2 z"
     id="path81" />
  <path
     d="m 53.7,8 c 0.1,0.1 0.1,0.1 0.1,0.1 0,-0.1 0,-0.2 -0.1,-0.1 0.1,-0.1 0,-0.1 0,0 0,-0.1 0,-0.1 0,0 0,-0.1 0,-0.1 0,-0.1 h 0.1 L 53.7,8 h 0.2 0.1 c -0.2,0.1 -0.2,0.1 -0.3,0 0,0.1 0,0.1 0,0 z M 54,8.1 V 7.8 H 53.9 54.1 54 Z m 0.1,0 0.1,-0.3 0.1,0.3 V 8 Z M 54.2,8 c 0.1,-0.1 0,-0.1 0,-0.2 z m 0.2,0.1 V 7.8 8.1 L 54.5,7.8 54.4,8.1 V 7.8 Z m 0.2,0 V 7.8 h 0.1 v 0.1 l -0.1,0.2 c 0.1,0 0.1,0 0,0 z m 0.1,0 c 0.1,0 0.1,0 0.1,-0.1 V 7.9 h -0.1 z m 0.2,0 V 7.8 H 55 c 0,0.3 0,0.3 -0.1,0.3 z m 0,-0.2 c 0.1,0 0.1,0 0,0 0.1,-0.1 0.1,-0.1 0,0 z m 0,0.2 c 0.1,0 0.1,0 0,0 z m 0.3,0 V 8 l -0.1,-0.2 0.1,0.1 v 0.2 c 0,-0.1 0,-0.1 0,-0.2 V 7.8 8 Z"
     id="path82" />
  <path
     d="M 50.7,3.7 V 3.6 c 0,0 0,0 0,-0.1 h 0.1 0.1 v 0.1 0.1 0.1 0.1 c 0,0 0,0 -0.1,0 h -0.1 c 0,-0.1 0,-0.1 0,-0.2 z m 0,0 v 0.1 h 0.1 0.1 V 3.7 c 0,-0.1 0,-0.1 0,-0.1 0,0 0,0 -0.1,0 0,0 0,0 -0.1,0 z"
     id="path83" />
  <path
     d="M 50.8,7.5 V 7.2 h 0.1 c 0,0 0,0 0,-0.1 z"
     id="path84" />
  <path
     d="M 54.4,3.7 V 3.6 c 0,0 0,0 0,-0.1 h 0.1 0.1 v 0.1 0.1 0.1 0.1 c 0,0 0,0 -0.1,0 h -0.1 c 0,-0.1 0,-0.1 0,-0.2 z m 0.1,0 v 0.1 h 0.1 0.1 V 3.7 c 0,-0.1 0,-0.1 0,-0.1 0,0 0,0 -0.1,0 0,0 0,0 -0.1,0 z"
     id="path85" />
  <path
     d="M 54.6,7.5 V 7.2 h 0.1 c 0,0 0,0 0,-0.1 z"
     id="path86" />
  <path
     d="M 5.1,4 V 3.7 3.8 H 5.2 V 3.7 L 5.1,4 5.2,3.9 H 5.1 Z M 5.3,4 V 3.7 Z M 5.5,3.9 c 0.1,0.1 0,0.1 0,0.1 0,0 0,0 -0.1,0 0,0 0,0 0.1,-0.1 -0.1,0 -0.1,0 0,0 L 5.4,3.8 c 0,0 0,0 0,-0.1 h 0.1 c 0.1,0.1 0.1,0.1 0,0.2 0.1,-0.1 0.1,-0.1 0,-0.1 -0.1,0 -0.1,0 0,0.1 -0.1,0 -0.1,0 0,0 -0.1,0.1 -0.1,0.1 0,0 0,0.1 0,0.1 0,0 z M 5.6,4 V 3.7 3.8 H 5.7 V 3.7 L 5.6,4 5.7,3.9 H 5.6 Z M 5.1,7.6 V 7.3 Z M 5.3,7.5 c 0,-0.1 0,-0.1 0,-0.1 h 0.1 0.1 v 0.1 0.1 0.1 0.1 c 0,0 0,0 -0.1,0 0,0 0,0 -0.1,0 0,-0.2 0,-0.2 0,-0.3 z m 0,0 c 0,0.1 0.1,0.1 0.1,0.1 H 5.5 V 7.5 c 0,0 0,0 0,-0.1 -0.1,-0.1 -0.1,0 -0.2,0.1 0,-0.1 0,-0.1 0,0 z M 5.6,7.6 5.5,7.3 v 0.2 c 0.1,0 0.1,0.1 0.1,0.1 0,-0.1 0,-0.1 0,0 L 5.7,7.3 V 7.5 L 5.6,7.6 c 0.1,0 0.1,0 0.1,-0.1 V 7.3 L 5.6,7.6 V 7.4 Z"
     id="path87" />
  <path
     d="M 7.1,3.7 C 7.5,3.7 7.8,4 7.8,4.4 7.8,4.8 7.5,5.1 7.1,5.1 6.7,5.1 6.4,4.8 6.4,4.4 6.4,4 6.7,3.7 7.1,3.7 Z"
     fill="#0c0c09"
     id="path88" />
  <path
     d="M 7.1,3.8 7.3,3.9 7.6,4.1 V 4.4 4.7 L 7.3,4.9 7.1,5 6.8,4.9 6.5,4.7 V 4.4 4.1 L 6.8,3.9 Z"
     fill="url(#j)"
     id="path89"
     style="fill:url(#j)" />
  <path
     d="M 7.1,3.8 7.3,4 7.6,4.1 V 4.4 4.7 L 7.3,4.9 7.1,5 6.8,4.9 6.6,4.7 V 4.4 4.1 L 6.8,4 Z"
     fill="#0c0c09"
     id="path90" />
  <path
     d="m 7.1,4 c 0.1,0 0.2,0 0.3,0.1 0.1,0.1 0.1,0.2 0.1,0.3 0,0.1 0,0.2 -0.1,0.3 C 7.3,4.8 7.2,4.8 7.1,4.8 7,4.8 6.9,4.8 6.8,4.7 6.7,4.6 6.7,4.5 6.7,4.4 6.7,4.3 6.7,4.2 6.8,4.1 6.8,4 7,4 7.1,4 Z m 0,0.1 c 0.1,0 0.2,0 0.3,0.1 0.1,0.1 0.1,0.2 0.1,0.3 0,0.1 0,0.2 -0.1,0.3 C 7.3,4.9 7.2,4.9 7.1,4.9 7,4.9 6.9,4.9 6.8,4.8 6.7,4.7 6.7,4.6 6.7,4.5 6.7,4.4 6.7,4.3 6.8,4.2 6.9,4.1 7,4.1 7.1,4.1 Z M 7.3,4.2 C 7.2,4.1 7.2,4.1 7.1,4.1 7,4.1 6.9,4.1 6.9,4.2 6.8,4.3 6.8,4.3 6.8,4.4 6.8,4.5 6.8,4.6 6.9,4.6 7,4.7 7,4.7 7.1,4.7 7.2,4.7 7.3,4.7 7.3,4.6 7.4,4.5 7.4,4.5 7.4,4.4 7.4,4.3 7.4,4.2 7.3,4.2 Z m 0,-0.1 C 7.3,4.1 7.2,4 7.1,4 7,4 6.9,4 6.8,4.1 6.7,4.2 6.7,4.3 6.7,4.4 c 0,0.1 0,0.2 0.1,0.3 0.1,0.1 0.2,0.1 0.3,0.1 0.1,0 0.2,0 0.3,-0.1 C 7.5,4.6 7.5,4.5 7.5,4.4 7.5,4.3 7.4,4.2 7.3,4.1 Z"
     fill="url(#l)"
     id="path91"
     style="fill:url(#l)" />
  <path
     d="M 7.1,6.3 C 7.5,6.3 7.8,6.6 7.8,7 7.8,7.4 7.5,7.7 7.1,7.7 6.7,7.7 6.4,7.4 6.4,7 6.4,6.6 6.7,6.3 7.1,6.3 Z"
     fill="#0c0c09"
     id="path92" />
  <path
     d="M 7.1,6.4 7.3,6.5 7.6,6.7 V 7 7.3 L 7.3,7.5 7.1,7.6 6.8,7.5 6.5,7.3 V 7 6.7 L 6.8,6.5 Z"
     fill="url(#m)"
     id="path93"
     style="fill:url(#m)" />
  <path
     d="M 7.1,6.4 7.3,6.6 7.6,6.7 V 7 7.3 L 7.3,7.5 7.1,7.6 6.8,7.5 6.6,7.3 V 7 6.7 L 6.8,6.6 Z"
     fill="#0c0c09"
     id="path94" />
  <path
     d="m 7.1,6.6 c 0.1,0 0.2,0 0.3,0.1 0.1,0.1 0.1,0.2 0.1,0.3 0,0.1 0,0.2 -0.1,0.3 C 7.3,7.4 7.2,7.4 7.1,7.4 7,7.4 6.9,7.4 6.8,7.3 6.7,7.2 6.7,7.1 6.7,7 6.7,6.9 6.7,6.8 6.8,6.7 6.8,6.6 7,6.6 7.1,6.6 Z m 0,0.1 c 0.1,0 0.2,0 0.3,0.1 0.1,0.1 0.1,0.2 0.1,0.3 0,0.1 0,0.2 -0.1,0.3 C 7.3,7.5 7.2,7.5 7.1,7.5 7,7.5 6.9,7.5 6.8,7.4 6.7,7.3 6.7,7.2 6.7,7.1 6.7,7 6.7,6.9 6.8,6.8 6.9,6.7 7,6.7 7.1,6.7 Z M 7.3,6.8 C 7.2,6.7 7.2,6.7 7.1,6.7 7,6.7 6.9,6.7 6.9,6.8 6.8,6.9 6.8,6.9 6.8,7 6.8,7.1 6.8,7.2 6.9,7.2 7,7.3 7,7.3 7.1,7.3 7.2,7.3 7.3,7.3 7.3,7.2 7.4,7.1 7.4,7.1 7.4,7 7.4,6.9 7.4,6.8 7.3,6.8 Z m 0,-0.1 C 7.2,6.6 7.1,6.6 7,6.6 6.9,6.6 6.8,6.6 6.7,6.7 6.6,6.8 6.6,6.9 6.6,7 c 0,0.1 0,0.2 0.1,0.3 0.1,0.1 0.2,0.1 0.3,0.1 0.1,0 0.2,0 0.3,-0.1 C 7.4,7.2 7.4,7.1 7.4,7 7.4,6.9 7.4,6.8 7.3,6.7 Z"
     fill="url(#n)"
     id="path95"
     style="fill:url(#n)" />
  <path
     d="M 5.4,4.1 V 7.2 Z"
     id="path96" />
  <path
     d="m 19.9,15.9 c 7.4,0 13.4,6 13.4,13.4 0,7.4 -6,13.4 -13.4,13.4 -7.4,0 -13.4,-6 -13.4,-13.4 0,-7.4 6,-13.4 13.4,-13.4 z"
     fill="#131313"
     id="path97" />
  <path
     d="m 19.9,17.3 c -6.6,0 -12,5.4 -12,12 0,6.6 5.4,12 12,12 6.6,0 12,-5.4 12,-12 0,-6.6 -5.4,-12 -12,-12 z m 0,18.3 c -3.5,0 -6.3,-2.8 -6.3,-6.3 0,-3.5 2.8,-6.3 6.3,-6.3 3.5,0 6.3,2.8 6.3,6.3 0,3.5 -2.8,6.3 -6.3,6.3 z"
     id="path98" />
  <path
     d="M 12.9,40.9 H 3.6 v 3.6 h 9.3 z"
     fill="#d2b267"
     id="path99" />
</svg>
