<svg xmlns="http://www.w3.org/2000/svg" width="60" height="60"><path d="M37.84 19.25C25.1-3.57 0 .9 0 .9v57.62c0 .52.43.95.95.95h58.1c.52 0 .95-.43.95-.95v-24.5s-14.2-.5-22.16-14.77zM5.36 56.1c0 .25-.2.46-.46.46H3.43c-.25 0-.46-.2-.46-.46v-8.72h1.5v4.7c0 .27.2.47.46.47h.43v3.55zm3 0c0 .25-.2.46-.46.46H6.43c-.25 0-.46-.2-.46-.46v-3.55h.43c.25 0 .46-.2.46-.46v-4.73h.62v4.7c0 .27.2.47.45.47h.43v3.55zm2.55.46H9.46c-.26 0-.46-.2-.46-.46v-3.55h.42c.26 0 .46-.2.46-.46v-4.73h1.5v8.72c0 .24-.2.45-.45.45zm3.56-.46c0 .25-.2.46-.46.46h-1.5c-.25 0-.46-.2-.46-.46v-8.72h1.5v4.7c0 .27.2.47.46.47h.43v3.55zm3 0c0 .25-.2.46-.45.46h-1.47c-.25 0-.46-.2-.46-.46v-3.55h.43c.25 0 .45-.2.45-.46v-4.73h.62v4.7c0 .27.2.47.46.47h.42v3.55zm3 0c0 .25-.2.46-.45.46h-1.46c-.25 0-.46-.2-.46-.46v-3.55h.43c.26 0 .47-.2.47-.46v-4.73h.6v4.7c0 .27.22.47.47.47h.43v3.55zm2.55.46h-1.46c-.25 0-.46-.2-.46-.46v-3.55h.43c.26 0 .47-.2.47-.46v-4.73h1.5v8.72c0 .24-.2.45-.46.45zm3.56-.46c0 .25-.2.46-.46.46h-1.5c-.24 0-.44-.2-.44-.46v-8.72h1.5v4.7c0 .27.2.47.46.47h.42v3.55zm3 0c0 .25-.2.46-.46.46h-1.5c-.25 0-.46-.2-.46-.46v-3.55h.43c.24 0 .45-.2.45-.46v-4.73h.6v4.7c0 .27.22.47.47.47h.42v3.55zm3 0c0 .25-.2.46-.45.46h-1.47c-.25 0-.45-.2-.45-.46v-3.55h.42c.25 0 .45-.2.45-.46v-4.73h.62v4.7c0 .27.2.47.46.47h.42v3.55zm2.55.46h-1.46c-.25 0-.46-.2-.46-.46v-3.55h.43c.26 0 .47-.2.47-.46v-4.73h1.5v8.72c0 .24-.2.45-.46.45zm3.55-.46c0 .25-.2.46-.46.46h-1.5c-.24 0-.45-.2-.45-.46v-8.72h1.5v4.7c0 .27.2.47.46.47h.45v3.55zm3 0c0 .25-.2.46-.45.46h-1.5c-.26 0-.46-.2-.46-.46v-3.55h.43c.24 0 .44-.2.44-.46v-4.73h.63v4.7c0 .27.2.47.46.47h.4v3.55zm3 0c0 .25-.2.46-.45.46h-1.5c-.25 0-.46-.2-.46-.46v-3.55h.43c.24 0 .45-.2.45-.46v-4.73h.6v4.7c0 .27.22.47.47.47h.42v3.55zm2.56.46h-1.47c-.25 0-.45-.2-.45-.46v-3.55h.42c.24 0 .45-.2.45-.46v-4.73h1.5v8.72c0 .24-.2.45-.45.45zm3.54-.46c0 .25-.2.46-.45.46h-1.5c-.25 0-.45-.2-.45-.46v-8.72h1.5v4.7c0 .27.2.47.46.47h.45v3.55zm3 0c0 .25-.2.46-.45.46h-1.5c-.24 0-.45-.2-.45-.46v-3.55h.43c.25 0 .46-.2.46-.46v-4.73h.6v4.7c0 .27.22.47.47.47h.45v3.55zm3.02 0c0 .25-.2.46-.46.46h-1.5c-.26 0-.46-.2-.46-.46v-3.55h.42c.26 0 .46-.2.46-.46v-4.73h1.5v8.72z"/></svg>