<?xml version="1.0" encoding="UTF-8" standalone="no"?>
<svg
   width="60"
   height="58.924179"
   version="1.1"
   id="svg1"
   sodipodi:docname="pianoa.svg"
   inkscape:version="1.3.2 (091e20e, 2023-11-25)"
   xmlns:inkscape="http://www.inkscape.org/namespaces/inkscape"
   xmlns:sodipodi="http://sodipodi.sourceforge.net/DTD/sodipodi-0.dtd"
   xmlns="http://www.w3.org/2000/svg"
   xmlns:svg="http://www.w3.org/2000/svg">
  <defs
     id="defs1" />
  <sodipodi:namedview
     id="namedview1"
     pagecolor="#ffffff"
     bordercolor="#666666"
     borderopacity="1.0"
     inkscape:showpageshadow="2"
     inkscape:pageopacity="0.0"
     inkscape:pagecheckerboard="0"
     inkscape:deskcolor="#d1d1d1"
     inkscape:zoom="13.783333"
     inkscape:cx="30"
     inkscape:cy="29.455865"
     inkscape:window-width="1888"
     inkscape:window-height="1057"
     inkscape:window-x="0"
     inkscape:window-y="25"
     inkscape:window-maximized="0"
     inkscape:current-layer="svg1" />
  <path
     d="M 37.84,18.704178 C 25.1,-4.115822 0,0.35417799 0,0.35417799 V 57.974178 c 0,0.52 0.43,0.95 0.95,0.95 h 58.1 c 0.52,0 0.95,-0.43 0.95,-0.95 v -24.5 c 0,0 -14.2,-0.5 -22.16,-14.77 z m -32.48,36.85 c 0,0.25 -0.2,0.46 -0.46,0.46 H 3.43 c -0.25,0 -0.46,-0.2 -0.46,-0.46 v -8.72 h 1.5 v 4.7 c 0,0.27 0.2,0.47 0.46,0.47 h 0.43 z m 3,0 c 0,0.25 -0.2,0.46 -0.46,0.46 H 6.43 c -0.25,0 -0.46,-0.2 -0.46,-0.46 v -3.55 H 6.4 c 0.25,0 0.46,-0.2 0.46,-0.46 v -4.73 h 0.62 v 4.7 c 0,0.27 0.2,0.47 0.45,0.47 h 0.43 v 3.55 z m 2.55,0.46 H 9.46 c -0.26,0 -0.46,-0.2 -0.46,-0.46 v -3.55 h 0.42 c 0.26,0 0.46,-0.2 0.46,-0.46 v -4.73 h 1.5 v 8.72 c 0,0.24 -0.2,0.45 -0.45,0.45 z m 3.56,-0.46 c 0,0.25 -0.2,0.46 -0.46,0.46 h -1.5 c -0.25,0 -0.46,-0.2 -0.46,-0.46 v -8.72 h 1.5 v 4.7 c 0,0.27 0.2,0.47 0.46,0.47 h 0.43 v 3.55 z m 3,0 c 0,0.25 -0.2,0.46 -0.45,0.46 h -1.47 c -0.25,0 -0.46,-0.2 -0.46,-0.46 v -3.55 h 0.43 c 0.25,0 0.45,-0.2 0.45,-0.46 v -4.73 h 0.62 v 4.7 c 0,0.27 0.2,0.47 0.46,0.47 h 0.42 v 3.55 z m 3,0 c 0,0.25 -0.2,0.46 -0.45,0.46 h -1.46 c -0.25,0 -0.46,-0.2 -0.46,-0.46 v -3.55 h 0.43 c 0.26,0 0.47,-0.2 0.47,-0.46 v -4.73 h 0.6 v 4.7 c 0,0.27 0.22,0.47 0.47,0.47 h 0.43 v 3.55 z m 2.55,0.46 h -1.46 c -0.25,0 -0.46,-0.2 -0.46,-0.46 v -3.55 h 0.43 c 0.26,0 0.47,-0.2 0.47,-0.46 v -4.73 h 1.5 v 8.72 c 0,0.24 -0.2,0.45 -0.46,0.45 z m 3.56,-0.46 c 0,0.25 -0.2,0.46 -0.46,0.46 h -1.5 c -0.24,0 -0.44,-0.2 -0.44,-0.46 v -8.72 h 1.5 v 4.7 c 0,0.27 0.2,0.47 0.46,0.47 h 0.42 v 3.55 z m 3,0 c 0,0.25 -0.2,0.46 -0.46,0.46 h -1.5 c -0.25,0 -0.46,-0.2 -0.46,-0.46 v -3.55 h 0.43 c 0.24,0 0.45,-0.2 0.45,-0.46 v -4.73 h 0.6 v 4.7 c 0,0.27 0.22,0.47 0.47,0.47 h 0.42 v 3.55 z m 3,0 c 0,0.25 -0.2,0.46 -0.45,0.46 h -1.47 c -0.25,0 -0.45,-0.2 -0.45,-0.46 v -3.55 h 0.42 c 0.25,0 0.45,-0.2 0.45,-0.46 v -4.73 h 0.62 v 4.7 c 0,0.27 0.2,0.47 0.46,0.47 h 0.42 v 3.55 z m 2.55,0.46 h -1.46 c -0.25,0 -0.46,-0.2 -0.46,-0.46 v -3.55 h 0.43 c 0.26,0 0.47,-0.2 0.47,-0.46 v -4.73 h 1.5 v 8.72 c 0,0.24 -0.2,0.45 -0.46,0.45 z m 3.55,-0.46 c 0,0.25 -0.2,0.46 -0.46,0.46 h -1.5 c -0.24,0 -0.45,-0.2 -0.45,-0.46 v -8.72 h 1.5 v 4.7 c 0,0.27 0.2,0.47 0.46,0.47 h 0.45 z m 3,0 c 0,0.25 -0.2,0.46 -0.45,0.46 h -1.5 c -0.26,0 -0.46,-0.2 -0.46,-0.46 v -3.55 h 0.43 c 0.24,0 0.44,-0.2 0.44,-0.46 v -4.73 h 0.63 v 4.7 c 0,0.27 0.2,0.47 0.46,0.47 h 0.4 v 3.55 z m 3,0 c 0,0.25 -0.2,0.46 -0.45,0.46 h -1.5 c -0.25,0 -0.46,-0.2 -0.46,-0.46 v -3.55 h 0.43 c 0.24,0 0.45,-0.2 0.45,-0.46 v -4.73 h 0.6 v 4.7 c 0,0.27 0.22,0.47 0.47,0.47 h 0.42 v 3.55 z m 2.56,0.46 h -1.47 c -0.25,0 -0.45,-0.2 -0.45,-0.46 v -3.55 h 0.42 c 0.24,0 0.45,-0.2 0.45,-0.46 v -4.73 h 1.5 v 8.72 c 0,0.24 -0.2,0.45 -0.45,0.45 z m 3.54,-0.46 c 0,0.25 -0.2,0.46 -0.45,0.46 h -1.5 c -0.25,0 -0.45,-0.2 -0.45,-0.46 v -8.72 h 1.5 v 4.7 c 0,0.27 0.2,0.47 0.46,0.47 h 0.45 v 3.55 z m 3,0 c 0,0.25 -0.2,0.46 -0.45,0.46 h -1.5 c -0.24,0 -0.45,-0.2 -0.45,-0.46 v -3.55 h 0.43 c 0.25,0 0.46,-0.2 0.46,-0.46 v -4.73 h 0.6 v 4.7 c 0,0.27 0.22,0.47 0.47,0.47 h 0.45 v 3.55 z m 3.02,0 c 0,0.25 -0.2,0.46 -0.46,0.46 h -1.5 c -0.26,0 -0.46,-0.2 -0.46,-0.46 v -3.55 h 0.42 c 0.26,0 0.46,-0.2 0.46,-0.46 v -4.73 h 1.5 v 8.72 z"
     id="path1" />
</svg>
